<?xml version="1.0" encoding="UTF-8"?>
<svg version="1.1" xmlns="http://www.w3.org/2000/svg" width="313" height="313">
<path d="M0 0 C103.29 0 206.58 0 313 0 C313 103.29 313 206.58 313 313 C209.71 313 106.42 313 0 313 C0 209.71 0 106.42 0 0 Z " fill="#010003" transform="translate(0,0)"/>
<path d="M0 0 C1.13356934 -0.03335449 1.13356934 -0.03335449 2.29003906 -0.06738281 C9.40638299 -0.03952414 14.52481446 2.28706289 19.8125 7 C22.82709306 10.45791557 24.1868384 12.41809835 24.19476891 16.966959 C24.2012178 17.90093187 24.20766669 18.83490474 24.214311 19.79717982 C24.2096652 21.33902463 24.2096652 21.33902463 24.20492554 22.91201782 C24.20945665 24.00262304 24.21398776 25.09322825 24.21865618 26.21688211 C24.23136855 29.89023599 24.22967539 33.5634429 24.22802734 37.23681641 C24.23400845 39.86301872 24.24081302 42.48921927 24.24838257 45.11541748 C24.26501067 51.52091986 24.270493 57.92638543 24.27160732 64.33190759 C24.27255728 69.54009801 24.27666499 74.74827628 24.28300858 79.95646286 C24.30062872 94.72361123 24.30984666 109.49073051 24.30834763 124.25788946 C24.30826772 125.05434356 24.3081878 125.85079765 24.30810547 126.67138672 C24.30802371 127.46881418 24.30794195 128.26624164 24.30785771 129.08783357 C24.30704539 142.00173281 24.32616733 154.91551524 24.3543822 167.82938071 C24.38312628 181.09022299 24.39692154 194.35100835 24.39519465 207.61188257 C24.3945311 215.05634449 24.40000753 222.5006841 24.42155075 229.94511795 C24.43978302 236.28614332 24.44409349 242.62699098 24.4305319 248.96803124 C24.42401137 252.20163579 24.42603414 255.43482965 24.4412384 258.66841507 C24.4566772 262.17960716 24.44739032 265.68990739 24.43197632 269.20108032 C24.44226344 270.21559253 24.45255057 271.23010474 24.46314943 272.27535975 C24.38687844 280.15007438 22.64206647 286.24749852 17.5 292.3125 C8.7200054 299.59347113 -0.64976755 299.27407532 -11.62207031 298.70703125 C-18.71975363 297.92313345 -24.6716901 294.32848632 -29.4375 289.125 C-30.34579549 287.92022824 -31.21918932 286.68862062 -32.0625 285.4375 C-32.60777344 284.64214844 -33.15304688 283.84679687 -33.71484375 283.02734375 C-34.77904554 281.4473171 -35.82985224 279.85813564 -36.86328125 278.2578125 C-37.9352744 276.49756755 -37.9352744 276.49756755 -39.0625 275.4375 C-41.39319565 275.164 -43.72727541 274.91916911 -46.0625 274.6875 C-52.67315722 273.91576095 -57.63610351 272.30840866 -63.0625 268.4375 C-63.949375 267.86 -64.83625 267.2825 -65.75 266.6875 C-69.16739515 263.36246688 -71.56731217 259.48024968 -74.0625 255.4375 C-74.59746094 254.70273437 -75.13242188 253.96796875 -75.68359375 253.2109375 C-77.28428402 249.99141882 -77.48887155 247.44240553 -77.78198242 243.90161133 C-78.34500103 236.18933617 -78.34500103 236.18933617 -82.640625 230.171875 C-85.73339944 228.70610015 -85.73339944 228.70610015 -88.97265625 227.5859375 C-94.53472977 225.51861814 -98.86697081 221.77874466 -101.5625 216.5 C-101.7275 215.819375 -101.8925 215.13875 -102.0625 214.4375 C-102.7225 214.4375 -103.3825 214.4375 -104.0625 214.4375 C-110.10556843 203.70026234 -109.10317332 190.2602396 -107.0625 178.4375 C-106.4025 178.1075 -105.7425 177.7775 -105.0625 177.4375 C-104.69464578 174.44211567 -104.47863785 172.35164383 -105.0625 169.4375 C-106.38981125 167.66395575 -106.38981125 167.66395575 -108.1875 166.125 C-114.57089479 160.24863657 -118.03202539 154.73441596 -118.50390625 145.90625 C-118.75535935 133.89227072 -118.75535935 133.89227072 -118.0625 129.4375 C-117.0725 128.4475 -117.0725 128.4475 -116.0625 127.4375 C-115.711875 126.468125 -115.36125 125.49875 -115 124.5 C-113.07626762 119.61433046 -109.39432052 116.14135466 -105.828125 112.37890625 C-103.46816077 108.44737292 -104.25583259 105.70562079 -105.0625 101.4375 C-106.07391775 89.78008588 -105.4192123 81.22600643 -97.97265625 71.7890625 C-91.40099209 64.12773778 -85.98712554 59.5106002 -76.1015625 57.2109375 C-75.42867187 56.95570312 -74.75578125 56.70046875 -74.0625 56.4375 C-73.7325 55.4475 -73.4025 54.4575 -73.0625 53.4375 C-72.4025 53.4375 -71.7425 53.4375 -71.0625 53.4375 C-71.16691406 52.56351563 -71.16691406 52.56351563 -71.2734375 51.671875 C-71.85751585 42.82726002 -68.67505958 35.83851505 -63.09375 29.0390625 C-57.51862397 23.27095133 -52.03696431 19.1095651 -44.0625 17.4375 C-43.12792969 17.42976563 -42.19335938 17.42203125 -41.23046875 17.4140625 C-35.0104346 17.42280018 -35.0104346 17.42280018 -29.72265625 14.515625 C-28.37189169 12.92893036 -27.05831462 11.30977213 -25.78515625 9.66015625 C-19.40954441 1.43402669 -9.70799357 0.16226161 0 0 Z " fill="#4912C1" transform="translate(124.0625,7.5625)"/>
<path d="M0 0 C5.17201261 3.78902023 8.81303023 6.54466619 10.21484375 13.0625 C11.38998251 20.91397658 11.42824126 27.8553064 6.5703125 34.4375 C0.56331137 40.9000883 -5.9387798 42.79424942 -14.4296875 43.4375 C-14.4296875 46.7375 -14.4296875 50.0375 -14.4296875 53.4375 C-4.99843636 52.46761956 4.75826538 50.48682755 11.55078125 43.359375 C18.12708992 34.07135386 19.11042243 24.58586966 19.5703125 13.4375 C26.68545005 12.90050849 32.02026996 14.74042366 38.5703125 17.4375 C38.5703125 18.0975 38.5703125 18.7575 38.5703125 19.4375 C39.29992187 19.69144531 40.02953125 19.94539063 40.78125 20.20703125 C46.40670056 22.68884767 52.01778941 27.32906222 54.5078125 33.0625 C54.8584375 34.17625 55.2090625 35.29 55.5703125 36.4375 C55.91449219 37.34886719 56.25867188 38.26023438 56.61328125 39.19921875 C59.17003318 47.85043243 58.4653862 57.78176456 54.95703125 66.06640625 C50.96857632 72.88610243 44.07802715 77.28511764 36.5703125 79.4375 C30.58220128 80.33673854 24.86311036 79.45654222 19.5703125 76.4375 C19.0546875 75.715625 18.5390625 74.99375 18.0078125 74.25 C17.5334375 73.651875 17.0590625 73.05375 16.5703125 72.4375 C12.98631843 72.02057147 12.98631843 72.02057147 9.5703125 72.4375 C8.35838485 73.47217161 8.35838485 73.47217161 8.0703125 75.625 C8.74335563 79.41086762 10.48761539 80.60167703 13.35546875 83.0078125 C20.2554857 87.46179169 25.80468881 87.88260216 33.8828125 87.75 C35.38424805 87.75483398 35.38424805 87.75483398 36.91601562 87.75976562 C42.28764807 88.06239469 42.28764807 88.06239469 46.5703125 85.4375 C47.8903125 85.4375 49.2103125 85.4375 50.5703125 85.4375 C50.5703125 84.7775 50.5703125 84.1175 50.5703125 83.4375 C51.4365625 82.963125 52.3028125 82.48875 53.1953125 82 C58.11006915 78.93701185 60.11112619 73.47438762 62.5703125 68.4375 C63.23697917 67.10416667 63.90364583 65.77083333 64.5703125 64.4375 C66.2203125 64.7675 67.8703125 65.0975 69.5703125 65.4375 C69.9003125 66.4275 70.2303125 67.4175 70.5703125 68.4375 C72.26707084 69.86006016 72.26707084 69.86006016 74.3203125 71.1875 C80.80108077 75.89128342 83.75019012 80.61416694 85.5703125 88.4375 C86.95585711 101.52982602 85.46924673 112.26263036 77.08984375 122.7421875 C75.1027963 124.95909906 73.04737415 126.78612557 70.5703125 128.4375 C69.9103125 128.4375 69.2503125 128.4375 68.5703125 128.4375 C68.5703125 129.0975 68.5703125 129.7575 68.5703125 130.4375 C61.11890093 133.93510135 53.65660514 134.13215822 45.5703125 134.4375 C46.84006222 138.85272109 46.84006222 138.85272109 49.5703125 142.4375 C56.25276254 143.54644106 62.31717436 141.57390757 68.5703125 139.4375 C69.85615234 139.06044922 69.85615234 139.06044922 71.16796875 138.67578125 C71.98136719 138.43214844 72.79476562 138.18851563 73.6328125 137.9375 C74.36628906 137.7209375 75.09976563 137.504375 75.85546875 137.28125 C76.70431641 136.86359375 76.70431641 136.86359375 77.5703125 136.4375 C77.9003125 135.4475 78.2303125 134.4575 78.5703125 133.4375 C82.01475694 130.4375 82.01475694 130.4375 84.5703125 130.4375 C84.9003125 129.4475 85.2303125 128.4575 85.5703125 127.4375 C90.6775963 128.29058477 93.27777598 131.68257336 96.5703125 135.4375 C101.47885282 142.47307446 101.94491718 151.11339877 100.5703125 159.4375 C97.14927377 170.96855361 90.02754318 180.36655521 79.421875 186.15625 C76.5703125 187.4375 76.5703125 187.4375 74.0703125 187.625 C70.67382983 186.01167073 69.2946338 183.6693302 67.16796875 180.62890625 C61.02470468 172.20257094 52.8738295 165.65293198 42.5703125 163.4375 C39.84318787 163.22911506 37.31082306 163.28801761 34.5703125 163.4375 C33.89072647 165.83469432 33.89072647 165.83469432 33.5703125 168.4375 C35.96107122 170.82825872 37.30784301 170.96456642 40.5703125 171.6875 C50.53040543 174.30789094 57.36846038 179.31093515 63.5703125 187.4375 C64.08335937 188.0459375 64.59640625 188.654375 65.125 189.28125 C70.80528003 197.75561372 71.72102947 209.56743275 70.5703125 219.4375 C67.79147164 231.01326309 59.78693046 240.29335738 50.5703125 247.4375 C48.9615625 248.365625 48.9615625 248.365625 47.3203125 249.3125 C44.37631723 251.58740544 43.66830673 252.9454574 42.1328125 256.25 C38.35386689 264.36817652 32.6097745 269.25012852 24.67578125 273.33203125 C18.44912526 275.54856414 11.58782903 275.72446716 5.265625 273.69921875 C-0.50256105 270.69134491 -4.18104096 265.39641333 -6.4296875 259.4375 C-7.10282005 254.46605117 -7.07686969 250.68392495 -4.7421875 246.1875 C-3.9790625 245.28 -3.2159375 244.3725 -2.4296875 243.4375 C-1.99785156 242.87804687 -1.56601563 242.31859375 -1.12109375 241.7421875 C0.04489817 240.25442333 1.30213024 238.83917513 2.5703125 237.4375 C3.2303125 237.4375 3.8903125 237.4375 4.5703125 237.4375 C4.38566884 233.09565798 4.38566884 233.09565798 2.5703125 229.4375 C-2.23358307 229.4375 -4.66986903 230.23190631 -8.1796875 233.5625 C-12.78889242 238.23631995 -14.78301969 243.75166826 -14.89819336 250.28515625 C-14.88284546 251.28869141 -14.88284546 251.28869141 -14.8671875 252.3125 C-14.85888916 253.01503906 -14.85059082 253.71757812 -14.84204102 254.44140625 C-14.55382721 263.31962224 -11.37635607 269.19383851 -5.4453125 275.640625 C-2.14142226 278.58595351 1.58524558 280.55792195 5.5703125 282.4375 C3.66752259 287.58622563 -0.33499421 288.99401598 -5.06640625 291.2265625 C-12.00811044 293.7258985 -18.5616617 293.50435671 -25.3671875 290.6875 C-26.73868556 289.96968357 -28.09577791 289.22296329 -29.4296875 288.4375 C-30.3165625 287.921875 -31.2034375 287.40625 -32.1171875 286.875 C-42.45073743 275.98287981 -41.22156164 264.22277873 -41.015625 250.05078125 C-41.0044195 247.77964911 -40.99588572 245.50850236 -40.98989868 243.23735046 C-40.96710733 237.29077354 -40.90826726 231.34509093 -40.8416748 225.39886475 C-40.78004292 219.31876723 -40.7528391 213.2385237 -40.72265625 207.15820312 C-40.65851495 195.25091147 -40.5562531 183.34428042 -40.4296875 171.4375 C-38.26094498 171.94353992 -36.43001123 172.43733813 -34.4296875 173.4375 C-24.65469605 174.04406272 -15.8338348 173.42972869 -6.4296875 170.4375 C-6.4296875 169.7775 -6.4296875 169.1175 -6.4296875 168.4375 C-4.9446875 167.32375 -4.9446875 167.32375 -3.4296875 166.1875 C-1.74799027 164.93520648 -1.74799027 164.93520648 -0.4296875 163.4375 C0.07296942 160.22589304 0.07296942 160.22589304 -0.4296875 157.4375 C-3.58282294 156.97606555 -5.660781 156.89305689 -8.31640625 158.7734375 C-9.53884175 159.86517235 -10.73936783 160.98205383 -11.9140625 162.125 C-13.4296875 163.4375 -13.4296875 163.4375 -15.4296875 163.4375 C-15.4296875 164.0975 -15.4296875 164.7575 -15.4296875 165.4375 C-20.22605549 167.83568399 -27.61483318 167.0852499 -32.73828125 165.90625 C-36.37683782 164.46647708 -38.46533053 162.77029213 -40.4296875 159.4375 C-40.81000423 156.57261086 -40.81000423 156.57261086 -40.81736755 153.18838501 C-40.82727219 151.90419174 -40.83717682 150.61999847 -40.84738159 149.29689026 C-40.84314353 147.87582302 -40.83858567 146.4547567 -40.83374023 145.03369141 C-40.83944321 143.53546133 -40.84640718 142.03723559 -40.85453796 140.53901672 C-40.87249453 136.4707361 -40.87129612 132.40267087 -40.86559558 128.33436251 C-40.86250675 124.93726781 -40.8685929 121.54021468 -40.87463433 118.14312589 C-40.88868668 110.12760872 -40.8871129 102.11219811 -40.87573242 94.09667969 C-40.86425532 85.83051535 -40.87831827 77.56467561 -40.9051289 69.29855406 C-40.92729129 62.19947673 -40.93392192 55.10050124 -40.92805248 48.00139177 C-40.92468239 43.76238064 -40.92710112 39.5235775 -40.94430351 35.28459549 C-40.95977885 31.29702839 -40.95581094 27.30994158 -40.93699837 23.32239342 C-40.93331381 21.86070917 -40.93641717 20.39898929 -40.94688416 18.93733788 C-40.96010289 16.93845594 -40.94613301 14.93944982 -40.93089294 12.94058228 C-40.93068366 11.8230337 -40.93047438 10.70548512 -40.93025875 9.55407143 C-39.97634886 3.61500022 -35.89033514 -0.73908774 -31.4296875 -4.5625 C-20.89505784 -9.82981483 -9.31234446 -5.98864596 0 0 Z " fill="#4A12C2" transform="translate(201.4296875,13.5625)"/>
<path d="M0 0 C2.33105618 1.85083859 3.2382913 3.53520651 3.8203125 6.4453125 C4.4803125 6.4453125 5.1403125 6.4453125 5.8203125 6.4453125 C7.03812035 19.58748885 7.03812035 19.58748885 4.21484375 23.89453125 C1.38914106 26.33852551 -1.28983586 28.1001316 -4.78027344 29.45410156 C-7.29449196 31.14302251 -7.29449196 31.14302251 -7.64533997 33.27935791 C-7.8280035 35.73317789 -7.84600632 38.14111438 -7.80859375 40.6015625 C-7.81100571 41.50024048 -7.81341766 42.39891846 -7.81590271 43.3248291 C-7.81492335 45.22457289 -7.80150859 47.12434489 -7.77661133 49.02392578 C-7.74231015 51.93490355 -7.75594417 54.84284571 -7.77539062 57.75390625 C-7.76849216 59.59897128 -7.75881976 61.44402846 -7.74609375 63.2890625 C-7.75105362 64.16099243 -7.75601349 65.03292236 -7.76112366 65.93127441 C-7.79465906 70.65439998 -7.79465906 70.65439998 -5.29663086 74.43554688 C-4.2487439 74.93538086 -4.2487439 74.93538086 -3.1796875 75.4453125 C1.00440368 77.69828467 4.61820159 80.13134112 6.8203125 84.4453125 C7.73144562 89.20519761 7.4927797 93.78977913 5.3828125 98.1953125 C2.47029196 102.48262421 -1.43412357 105.4248527 -6.1796875 107.4453125 C-11.50384851 108.25832628 -16.50681292 108.38554819 -21.1796875 105.4453125 C-21.5096875 104.7853125 -21.8396875 104.1253125 -22.1796875 103.4453125 C-27.81863568 102.86990962 -30.07747042 103.82838168 -34.26953125 107.19921875 C-37.58467694 109.3618598 -41.31746761 109.85853533 -45.1796875 110.4453125 C-45.1796875 111.1053125 -45.1796875 111.7653125 -45.1796875 112.4453125 C-51.48900578 115.16979085 -57.83319908 117.8087582 -64.1796875 120.4453125 C-64.07277514 122.86268086 -64.07277514 122.86268086 -63.1796875 125.4453125 C-60.98848809 127.09039591 -60.98848809 127.09039591 -58.1171875 128.2578125 C-57.03695312 128.75539062 -55.95671875 129.25296875 -54.84375 129.765625 C-54.2549707 130.03149414 -53.66619141 130.29736328 -53.05957031 130.57128906 C-50.3568602 131.82787376 -47.71845516 133.20185299 -45.07006836 134.56835938 C-41.7975752 136.24478637 -38.49463298 137.85479455 -35.1796875 139.4453125 C-34.25285156 139.89132813 -33.32601562 140.33734375 -32.37109375 140.796875 C-29.86037363 141.93613017 -29.86037363 141.93613017 -26.1796875 142.4453125 C-23.60537885 141.11829056 -22.22567207 139.58872491 -20.1796875 137.4453125 C-15.03352924 135.72992641 -9.79851752 135.4652845 -4.6640625 137.38671875 C-0.16593361 139.76238616 3.0237211 142.09850414 5.8203125 146.4453125 C6.24609375 149.671875 6.24609375 149.671875 6.1328125 153.0703125 C6.09607422 154.76027344 6.09607422 154.76027344 6.05859375 156.484375 C5.8203125 159.4453125 5.8203125 159.4453125 4.8203125 162.4453125 C4.1603125 162.4453125 3.5003125 162.4453125 2.8203125 162.4453125 C2.6140625 163.0228125 2.4078125 163.6003125 2.1953125 164.1953125 C0.30406028 167.29008886 -2.08004687 168.6371888 -5.1796875 170.4453125 C-5.8396875 170.4453125 -6.4996875 170.4453125 -7.1796875 170.4453125 C-7.1796875 186.6153125 -7.1796875 202.7853125 -7.1796875 219.4453125 C-4.5396875 220.7653125 -1.8996875 222.0853125 0.8203125 223.4453125 C5.47520083 228.33891305 6.13737085 232.35063362 6.0234375 238.8828125 C5.57252003 244.57130977 3.49436776 248.21113127 -0.7421875 251.8828125 C-5.44794396 255.12397809 -9.63466916 255.34450466 -15.1796875 254.4453125 C-21.4439479 252.56603438 -25.22679789 247.41708535 -29.1796875 242.4453125 C-30.48306109 239.83856532 -29.99064017 237.81981776 -29.75756836 234.98608398 C-29.24279099 228.00104361 -29.24279099 228.00104361 -32.0859375 221.85546875 C-34.68465773 219.83023154 -37.36240977 218.1498839 -40.1796875 216.4453125 C-41.71061696 215.10257039 -43.23203833 213.74888383 -44.7421875 212.3828125 C-47.90215073 209.92814862 -49.6781243 209.02235423 -53.6796875 209.5078125 C-55.18081292 209.81486088 -56.68081508 210.12744818 -58.1796875 210.4453125 C-59.75973551 210.57698317 -61.34452982 210.66119487 -62.9296875 210.6953125 C-63.62578125 210.72109375 -64.321875 210.746875 -65.0390625 210.7734375 C-69.95203318 210.0203544 -73.08078054 206.88875911 -75.9921875 203.0703125 C-79.418946 197.91887774 -80.20210499 193.65474872 -79.8828125 187.515625 C-78.75409103 182.5868746 -76.05708867 179.5682872 -72.1796875 176.4453125 C-71.5196875 176.1153125 -70.8596875 175.7853125 -70.1796875 175.4453125 C-70.6336439 170.90574846 -71.97087869 167.69193944 -74.05859375 163.73828125 C-79.1796875 153.26412783 -79.1796875 153.26412783 -79.1796875 148.4453125 C-79.8396875 148.4453125 -80.4996875 148.4453125 -81.1796875 148.4453125 C-81.4890625 147.3315625 -81.7984375 146.2178125 -82.1171875 145.0703125 C-82.86135717 143.08053532 -82.86135717 143.08053532 -84.1796875 141.4453125 C-86.41435144 140.62155403 -88.54794331 140.31162328 -90.8984375 139.9453125 C-95.2977979 138.98106913 -97.97320835 136.23435946 -100.43359375 132.5859375 C-102.89823524 128.15473538 -103.92576708 124.57460962 -103.1796875 119.4453125 C-100.38258224 113.20561616 -96.68983787 108.80639122 -90.1171875 106.2578125 C-85.61913121 103.48241607 -84.19528492 99.19891171 -82.1796875 94.4453125 C-81.5196875 94.4453125 -80.8596875 94.4453125 -80.1796875 94.4453125 C-80.086875 93.2696875 -80.086875 93.2696875 -79.9921875 92.0703125 C-79.24110846 88.71934447 -78.2803424 86.55943173 -76.6796875 83.5703125 C-74.29782636 78.91802233 -73.00978014 75.71244053 -73.1796875 70.4453125 C-74.32619435 68.37908038 -75.65502742 66.51661786 -77.015625 64.5859375 C-79.14310313 60.67366228 -78.95290365 56.7449724 -78.1796875 52.4453125 C-75.77248949 47.53833194 -71.67698642 42.79885324 -66.43359375 40.76953125 C-63.27403127 40.31503613 -60.29356477 40.78782186 -57.1171875 41.0703125 C-52.65995472 41.2619865 -49.7554769 40.84942482 -45.99609375 38.2109375 C-43.17135637 35.47937059 -40.69669939 32.45828732 -38.1796875 29.4453125 C-31.90747578 23.4453125 -31.90747578 23.4453125 -29.1796875 23.4453125 C-29.26089844 22.383125 -29.34210938 21.3209375 -29.42578125 20.2265625 C-30.10971539 7.36556096 -30.10971539 7.36556096 -25.8046875 2.5703125 C-24.62927181 1.49163885 -23.424896 0.44260618 -22.1796875 -0.5546875 C-21.5196875 -1.2146875 -20.8596875 -1.8746875 -20.1796875 -2.5546875 C-12.80204072 -4.93656927 -6.56471072 -4.00287239 0 0 Z " fill="#04010A" transform="translate(130.1796875,31.5546875)"/>
<path d="M0 0 C12.42216647 2.795708 23.93029456 9.9575489 35 16 C35.99128906 16.51820313 36.98257813 17.03640625 38.00390625 17.5703125 C40.74897448 19.53644748 40.78909994 21.67361382 41.4140625 24.86328125 C42.38739504 28.41270058 44.3379243 31.46293891 47 34 C47.69351563 34.16628906 48.38703125 34.33257812 49.1015625 34.50390625 C49.72804687 34.66761719 50.35453125 34.83132812 51 35 C51.94639814 37.83919443 52.12648534 39.58976446 52.12939453 42.53149414 C52.13254669 43.44576675 52.13569885 44.36003937 52.13894653 45.30201721 C52.1369223 46.28645309 52.13489807 47.27088898 52.1328125 48.28515625 C52.13376923 49.29718613 52.13472595 50.309216 52.13571167 51.35191345 C52.13639223 53.4912014 52.13454656 55.63049141 52.13037109 57.76977539 C52.12501559 61.05294403 52.13032313 64.33597622 52.13671875 67.61914062 C52.13605806 69.6953128 52.13477707 71.7714849 52.1328125 73.84765625 C52.13483673 74.83411636 52.13686096 75.82057648 52.13894653 76.83692932 C52.13421829 78.20361 52.13421829 78.20361 52.12939453 79.59790039 C52.12859894 80.40159561 52.12780334 81.20529083 52.12698364 82.03334045 C52 84 52 84 51 86 C46.03531367 85.58473813 43.19423578 83.00713439 39.625 79.8125 C39.08617187 79.34263672 38.54734375 78.87277344 37.9921875 78.38867188 C36.88994903 77.42683759 35.79657119 76.45476246 34.71191406 75.47314453 C33.00786193 73.95909732 33.00786193 73.95909732 31.06152344 72.63232422 C26.34069002 69.17303051 26.34069002 69.17303051 25.37353516 65.84301758 C25.02893511 62.5510378 25.00494821 59.29542476 24.984375 55.98828125 C24.80097061 51.20228163 24.80097061 51.20228163 22.4909668 47.13842773 C19.75778504 44.76367244 16.90748989 42.94376836 13.8125 41.0625 C7.70067204 36.58049283 5.61581354 28.85229417 3 22 C2.56171875 20.89269531 2.1234375 19.78539062 1.671875 18.64453125 C1.22328125 17.50371094 0.7746875 16.36289063 0.3125 15.1875 C-0.10386719 14.12917969 -0.52023438 13.07085937 -0.94921875 11.98046875 C-1.8991578 9.28603197 -2.66632193 6.83626362 -3 4 C-1.5625 1.6875 -1.5625 1.6875 0 0 Z " fill="#4912C0" transform="translate(60,165)"/>
<path d="M0 0 C1.15410254 2.30820508 1.1210297 3.60784276 1.11352539 6.17431641 C1.11344986 7.03505768 1.11337433 7.89579895 1.11329651 8.78262329 C1.10813522 9.71287323 1.10297394 10.64312317 1.09765625 11.6015625 C1.0962413 12.55316254 1.09482635 13.50476257 1.09336853 14.48519897 C1.08776012 17.53183097 1.07520619 20.57839013 1.0625 23.625 C1.05748608 25.68749894 1.05292299 27.74999903 1.04882812 29.8125 C1.03778796 34.87502817 1.02051767 39.93750173 1 45 C-0.72932943 45.69783529 -2.45865885 46.39567057 -4.18798828 47.09350586 C-7.35257142 48.67665018 -9.50376438 50.84587413 -11 54 C-11.05358184 55.6202127 -11.05334363 57.24271728 -11.01171875 58.86328125 C-11.28122907 62.14382076 -11.45586233 63.50347091 -13.91699219 65.74926758 C-16.53549324 67.23985831 -19.15962014 68.45878753 -21.9375 69.625 C-23.33645508 70.27275391 -23.33645508 70.27275391 -24.76367188 70.93359375 C-31.49516369 74 -31.49516369 74 -34 74 C-34 74.66 -34 75.32 -34 76 C-34.68707031 76.26554687 -35.37414062 76.53109375 -36.08203125 76.8046875 C-36.98308594 77.15789062 -37.88414063 77.51109375 -38.8125 77.875 C-39.70582031 78.22304687 -40.59914063 78.57109375 -41.51953125 78.9296875 C-44.17711591 79.98832155 -44.17711591 79.98832155 -47 82 C-51.3132535 82.47925039 -53.30586782 82.47260063 -56.9375 80 C-57.618125 79.34 -58.29875 78.68 -59 78 C-57.11315692 69.51913692 -52.93261857 61.57208122 -49 53.875 C-48.68023193 53.22362061 -48.36046387 52.57224121 -48.03100586 51.90112305 C-46.51338614 49.00781377 -45.40122027 47.22493609 -42.51953125 45.609375 C-38.99694782 44.75740133 -35.60636632 44.36674912 -32 44 C-32 43.34 -32 42.68 -32 42 C-30.33333333 40.33333333 -28.66666667 38.66666667 -27 37 C-25.12012518 33.93214873 -24.65647167 31.31530784 -24.375 27.75 C-24.30023438 26.85796875 -24.22546875 25.9659375 -24.1484375 25.046875 C-24.09945312 24.37140625 -24.05046875 23.6959375 -24 23 C-24.66 23 -25.32 23 -26 23 C-26.30859375 20.2734375 -26.30859375 20.2734375 -26 17 C-23.91015625 14.7265625 -23.91015625 14.7265625 -21.0625 12.625 C-16.45535898 9.13707447 -12.26820386 5.50210557 -8.16796875 1.43359375 C-5.33324612 -0.44089851 -3.32809131 -0.26111986 0 0 Z " fill="#4912BF" transform="translate(113,61)"/>
<path d="M0 0 C1.19931152 0.01595215 1.19931152 0.01595215 2.42285156 0.03222656 C8.40898943 0.22517021 13.09915118 1.21021743 18.1875 4.5 C19.239375 5.098125 20.29125 5.69625 21.375 6.3125 C24.87245982 9.03274653 27.51683621 11.98162552 30.1875 15.5 C30.97125 16.53125 31.755 17.5625 32.5625 18.625 C35.31688238 23.69582949 34.96984594 29.93195234 34.1875 35.5 C32.8203125 38.37109375 32.8203125 38.37109375 31.1875 40.5 C28.625 40.9375 28.625 40.9375 26.1875 40.5 C23.55572512 37.86822512 23.90175272 36.47755818 23.75 32.8125 C23.23777531 25.78410554 22.2770429 21.1392662 16.875 16.25 C10.18143852 11.04544284 4.65733442 9.51483799 -3.8125 10.5 C-5.16700065 11.12253531 -6.50531105 11.78342533 -7.8125 12.5 C-10.72716608 12.85544708 -12.1903981 12.89399787 -14.6875 11.3125 C-15.8125 9.5 -15.8125 9.5 -15.875 7.0625 C-13.03416875 0.21108346 -6.47439146 -0.15395925 0 0 Z " fill="#05010D" transform="translate(202.8125,206.5)"/>
<path d="M0 0 C1.52173828 -0.00193359 1.52173828 -0.00193359 3.07421875 -0.00390625 C4.13253906 -0.00003906 5.19085938 0.00382812 6.28125 0.0078125 C7.86873047 0.00201172 7.86873047 0.00201172 9.48828125 -0.00390625 C10.50277344 -0.00261719 11.51726562 -0.00132813 12.5625 0 C13.49126953 0.00112793 14.42003906 0.00225586 15.37695312 0.00341797 C17.78125 0.1328125 17.78125 0.1328125 20.78125 1.1328125 C20.78125 1.7928125 20.78125 2.4528125 20.78125 3.1328125 C21.833125 3.473125 21.833125 3.473125 22.90625 3.8203125 C29.81107233 6.972514 34.4403114 12.3933329 37.78125 19.1328125 C38.28125 23.0703125 38.28125 23.0703125 37.78125 26.1328125 C35.78125 28.1328125 35.78125 28.1328125 32.65625 28.2578125 C31.7075 28.2165625 30.75875 28.1753125 29.78125 28.1328125 C29.52472656 27.48054688 29.26820313 26.82828125 29.00390625 26.15625 C25.58520302 18.35193757 21.28021891 14.88229696 13.78125 11.1328125 C6.76607403 10.57926295 0.98640099 10.68550639 -5.21875 14.1328125 C-5.54875 14.4628125 -5.87875 14.7928125 -6.21875 15.1328125 C-9.15625 15.3203125 -9.15625 15.3203125 -12.21875 15.1328125 C-14.21875 13.1328125 -14.21875 13.1328125 -14.71875 9.8203125 C-14.20091523 6.00128105 -14.12353062 5.57053521 -11.40625 3.2578125 C-7.35646021 0.55795264 -4.75270605 0.00577185 0 0 Z " fill="#04010B" transform="translate(195.21875,113.8671875)"/>
<path d="M0 0 C2.875 1.4375 2.875 1.4375 5 4 C5.78679071 7.17082572 5.78982135 9.82943144 5 13 C1.97799411 16.61166558 0.03347154 17.78242704 -4.5625 18.75 C-8.23225459 17.94932627 -8.75769775 17.6265385 -10.9375 14.8125 C-12.79585237 11.75421812 -13.85452572 9.60799749 -13 6 C-9.4708032 0.64535658 -6.3600894 -0.63600894 0 0 Z " fill="#4612B7" transform="translate(50,146)"/>
<path d="M0 0 C4.78928081 0.92424717 6.3477954 2.00235082 9.5625 5.6875 C10.3125 9.1875 10.3125 9.1875 9.5625 12.6875 C6.98058911 15.72124529 5.3769346 17.25996081 1.5234375 18.16796875 C-2.20527061 18.42632493 -4.09155427 17.98155387 -6.9375 15.5625 C-8.72802649 12.13065756 -9.13806777 10.50170233 -8.4375 6.6875 C-5.97360795 2.65567664 -4.69516396 0.93903279 0 0 Z " fill="#4612B9" transform="translate(70.4375,79.3125)"/>
<path d="M0 0 C2.0625 0.40625 2.0625 0.40625 4.125 1.84375 C5.55024162 5.73941043 5.71558927 9.31505858 5.0625 13.40625 C3.5625 15.96875 3.5625 15.96875 1.0625 17.40625 C-2.96268275 18.1898409 -5.89732944 18.03035234 -9.4375 15.90625 C-11.53412576 12.41187374 -11.6733958 9.31811715 -10.9375 5.40625 C-8.42457882 0.16189275 -5.4334992 -0.35746705 0 0 Z " fill="#4512B7" transform="translate(120.9375,258.59375)"/>
<path d="M0 0 C3.4375 0.6875 3.4375 0.6875 5.875 3.25 C7.66065592 7.17844303 8.05774813 9.42329414 7.4375 13.6875 C5.9375 16.625 5.9375 16.625 3.4375 18.6875 C0.48211765 19.31187655 -1.4684768 19.08039183 -4.5625 18.6875 C-7.23681489 16.87586733 -7.52170359 15.80988923 -8.5625 12.6875 C-9.04621102 8.33410085 -9.05042815 6.38242797 -6.5 2.75 C-3.5625 0.6875 -3.5625 0.6875 0 0 Z " fill="#4812BE" transform="translate(119.5625,35.3125)"/>
<path d="M0 0 C4.37502413 0.67888305 6.47764235 1.41514235 9.625 4.5625 C10.49536722 7.74605795 10.50097074 10.37980633 9.625 13.5625 C6.66601757 16.45103046 4.58510303 17.36656061 0.5625 18.1875 C-2.375 17.5625 -2.375 17.5625 -5.25 14.9375 C-7.56846562 11.25523108 -8.18646283 9.80013922 -7.375 5.5625 C-5.3064854 1.75643314 -4.31556598 0.719261 0 0 Z " fill="#4512B5" transform="translate(117.375,176.4375)"/>
<path d="M0 0 C2.9375 1.5 2.9375 1.5 5 4 C5.79190864 8.98902441 5.80380719 10.83082591 2.9375 15 C-0.75807048 17.51613309 -2.61537271 17.79720496 -7 17 C-9.57687323 14.88564247 -10.74473348 13.32896485 -11.37890625 10.02734375 C-11.57547799 6.63489591 -11.24074916 4.38519866 -9.4375 1.5 C-6.03618625 -0.59311615 -3.92927257 -0.55147685 0 0 Z " fill="#4612B7" transform="translate(72,215)"/>
<path d="M0 0 C2.50201075 0.76949502 3.54520241 1.57570189 5.12109375 3.65234375 C5.62109375 7.02734375 5.62109375 7.02734375 5.12109375 10.65234375 C2.68359375 13.52734375 2.68359375 13.52734375 0.12109375 15.65234375 C-0.20890625 15.98234375 -0.53890625 16.31234375 -0.87890625 16.65234375 C-2.87848989 16.69315158 -4.87935879 16.69488731 -6.87890625 16.65234375 C-7.53890625 15.33234375 -8.19890625 14.01234375 -8.87890625 12.65234375 C-9.53890625 12.65234375 -10.19890625 12.65234375 -10.87890625 12.65234375 C-11.48594437 4.76084815 -11.48594437 4.76084815 -9.44140625 1.02734375 C-6.05840003 -0.78792788 -3.73776389 -0.46012945 0 0 Z " fill="#4612B8" transform="translate(121.87890625,114.34765625)"/>
<path d="M0 0 C0.66 0 1.32 0 2 0 C1.67 0.99 1.34 1.98 1 3 C0.34 3 -0.32 3 -1 3 C-1 16.2 -1 29.4 -1 43 C-1.33 43 -1.66 43 -2 43 C-2.04934656 37.19760386 -2.08569402 31.39532919 -2.10986328 25.59277344 C-2.11993627 23.61781691 -2.13359521 21.64287534 -2.15087891 19.66796875 C-2.17507039 16.83329582 -2.18646991 13.99881962 -2.1953125 11.1640625 C-2.20563507 10.27756012 -2.21595764 9.39105774 -2.22659302 8.47769165 C-2.2269907 6.31714048 -2.12272534 4.15706282 -2 2 C-1.34 1.34 -0.68 0.68 0 0 Z " fill="#2F0D81" transform="translate(124,61)"/>
<path d="M0 0 C0.33 0.66 0.66 1.32 1 2 C-0.36125 1.87625 -0.36125 1.87625 -1.75 1.75 C-5.69524707 2.05348054 -6.47059481 3.10925121 -9 6 C-9.66 6 -10.32 6 -11 6 C-11 7.98 -11 9.96 -11 12 C-11.33 12 -11.66 12 -12 12 C-12.4206933 7.70892835 -12.45543836 5.64865463 -9.9375 2.0625 C-6.35134537 -0.45543836 -4.29107165 -0.4206933 0 0 Z " fill="#320D86" transform="translate(123,36)"/>
<path d="M0 0 C-1.38188453 3.21043882 -2.92421903 5.04936365 -5.625 7.25 C-6.57246094 8.03117188 -6.57246094 8.03117188 -7.5390625 8.828125 C-8.02117187 9.21484375 -8.50328125 9.6015625 -9 10 C-9 7 -9 7 -7.5390625 5.17578125 C-6.90742188 4.56089844 -6.27578125 3.94601563 -5.625 3.3125 C-4.68527344 2.37857422 -4.68527344 2.37857422 -3.7265625 1.42578125 C-2 0 -2 0 0 0 Z " fill="#0F0428" transform="translate(199,243)"/>
<path d="M0 0 C0.66 0.33 1.32 0.66 2 1 C0.63875 1.86625 0.63875 1.86625 -0.75 2.75 C-3.97018576 4.83602168 -3.97018576 4.83602168 -6.25 7.25 C-7.11625 8.11625 -7.11625 8.11625 -8 9 C-8.66 9 -9.32 9 -10 9 C-8.50521886 5.19510255 -6.30557786 3.33809165 -3 1 C-2.01 0.67 -1.02 0.34 0 0 Z " fill="#11042F" transform="translate(40,138)"/>
<path d="M0 0 C-1.44077046 3.36179774 -3.24750021 5.59156268 -6 8 C-6.66 8 -7.32 8 -8 8 C-6.48291727 4.46014029 -4.24676932 0 0 0 Z " fill="#11042D" transform="translate(62,74)"/>
<path d="M0 0 C0.99 0.33 1.98 0.66 3 1 C2.360625 1.556875 1.72125 2.11375 1.0625 2.6875 C-1.19680987 5.22066561 -1.63149047 6.68341424 -2 10 C-2.33 10 -2.66 10 -3 10 C-3.36923077 3.47692308 -3.36923077 3.47692308 -1.5 1.0625 C-1.005 0.711875 -0.51 0.36125 0 0 Z " fill="#0C0321" transform="translate(184,117)"/>
<path d="M0 0 C1.65 0.33 3.3 0.66 5 1 C4.67 1.66 4.34 2.32 4 3 C2.68 3 1.36 3 0 3 C0 3.99 0 4.98 0 6 C-0.66 6 -1.32 6 -2 6 C-1.34 4.02 -0.68 2.04 0 0 Z " fill="#2E0D78" transform="translate(266,78)"/>
</svg>
